HIERARCHY
ROOT Hips
{
  OFFSET 47.2531 84.1923 12.3953
  CHANNELS 6 Xposition Yposition Zposition Zrotation Xrotation Yrotation
  JOINT spine
  {
    OFFSET 0 6.24479 0.359107
    CHANNELS 3 Zrotation Xrotation Yrotation
    JOINT spine1
    {
      OFFSET 0 9.06941 0
      CHANNELS 3 Zrotation Xrotation Yrotation
      JOINT spine2
      {
        OFFSET 0 8.69014 0
        CHANNELS 3 Zrotation Xrotation Yrotation
        JOINT Neck
        {
          OFFSET 0 22.3112 1.06372
          CHANNELS 3 Zrotation Xrotation Yrotation
          JOINT Head
          {
            OFFSET 0 6.74081 0
            CHANNELS 3 Zrotation Xrotation Yrotation
            End Site
            {
              OFFSET 0 16.3165 -5.38097
            }
          }
        }
        JOINT RightShoulder
        {
          OFFSET -3.65916 9.38468 -0.509514
          CHANNELS 3 Zrotation Xrotation Yrotation
          JOINT RightArm
          {
            OFFSET 0 12.3089 0
            CHANNELS 3 Zrotation Xrotation Yrotation
            JOINT RightArmRoll
            {
              OFFSET 0 6.21375 0
              CHANNELS 3 Zrotation Xrotation Yrotation
              JOINT RightForeArm
              {
                OFFSET 0 18.0985 0
                CHANNELS 3 Zrotation Xrotation Yrotation
                JOINT RightForeArmRoll
                {
                  OFFSET 0 6.97279 0
                  CHANNELS 3 Zrotation Xrotation Yrotation
                  JOINT RightHand
                  {
                    OFFSET 0 13.9929 0
                    CHANNELS 3 Zrotation Xrotation Yrotation
                    End Site
                    {
                      OFFSET 0 0 0
                    }
                  }
                }
              }
            }
          }
        }
        JOINT LeftShoulder
        {
          OFFSET 3.65916 9.38468 -0.509514
          CHANNELS 3 Zrotation Xrotation Yrotation
          JOINT LeftArm
          {
            OFFSET 0 12.3089 0
            CHANNELS 3 Zrotation Xrotation Yrotation
            JOINT LeftArmRoll
            {
              OFFSET 0 6.21375 0
              CHANNELS 3 Zrotation Xrotation Yrotation
              JOINT LeftForeArm
              {
                OFFSET 0 18.0985 0
                CHANNELS 3 Zrotation Xrotation Yrotation
                JOINT LeftForeArmRoll
                {
                  OFFSET 0 6.97279 0
                  CHANNELS 3 Zrotation Xrotation Yrotation
                  JOINT LeftHand
                  {
                    OFFSET 0 13.9929 0
                    CHANNELS 3 Zrotation Xrotation Yrotation
                    End Site
                    {
                      OFFSET 0 0 0
                    }
                  }
                }
              }
            }
          }
        }
      }
    }
  }
  JOINT RightUpLeg
  {
    OFFSET -5.53515 -1.015 -0.851454
    CHANNELS 3 Zrotation Xrotation Yrotation
    JOINT RightUpLegRoll
    {
      OFFSET 0 16.4075 0
      CHANNELS 3 Zrotation Xrotation Yrotation
      JOINT RightLeg
      {
        OFFSET 0 -20.3181 0
        CHANNELS 3 Zrotation Xrotation Yrotation
        JOINT RightLegRoll
        {
          OFFSET 0 20.3846 0
          CHANNELS 3 Zrotation Xrotation Yrotation
          JOINT RightFoot
          {
            OFFSET 0 16.9668 0
            CHANNELS 3 Zrotation Xrotation Yrotation
            JOINT RightToeBase
            {
              OFFSET 0 14.1834 0
              CHANNELS 3 Zrotation Xrotation Yrotation
              End Site
              {
                OFFSET 0.0060118 6.8689 -0.791746
              }
            }
          }
        }
      }
    }
  }
  JOINT LeftUpLeg
  {
    OFFSET 5.53515 -1.015 -0.851454
    CHANNELS 3 Zrotation Xrotation Yrotation
    JOINT LeftUpLegRoll
    {
      OFFSET 0 16.4076 0
      CHANNELS 3 Zrotation Xrotation Yrotation
      JOINT LeftLeg
      {
        OFFSET 0 20.3181 0
        CHANNELS 3 Zrotation Xrotation Yrotation
        JOINT LeftLegRoll
        {
          OFFSET 0 20.5731 0
          CHANNELS 3 Zrotation Xrotation Yrotation
          JOINT LeftFoot
          {
            OFFSET 0 16.7783 0
            CHANNELS 3 Zrotation Xrotation Yrotation
            JOINT LeftToeBase
            {
              OFFSET 0 14.1834 0
              CHANNELS 3 Zrotation Xrotation Yrotation
              End Site
              {
                OFFSET -0.0269423 6.8689 -0.791746
              }
            }
          }
        }
      }
    }
  }
}
MOTION
Frames: 4
Frame Time: 0.00208333
46.9459 84.2708 12.6467 0.174995 -1.99916 -4.13165 -0.291944 -1.82589 -0.0223051 -0.569409 0.351006 -0.0186803 -0.56947 1.99603 -0.0103419 7.17789 14.0653 -0.651072 -6.64607 -0.922273 1.10299 69.8879 -0.0697457 -1.28357 115.098 30.0123 -23.908 6.50634e-006 -4.15991e-006 3.82449e-006 -175.988 86.2997 170.184 -5.51698e-006 5.23422e-007 -3 8.03017 -4.95124 0.697628 -58.0786 -8.73746 5.4002 -119.681 24.0221 25.0014 -6.30101e-006 -6.67592e-006 -5.80768e-007 118.705 86.8718 -112.801 5.05732e-006 3.15039e-006 3 -8.03011 -4.95122 -0.697626 176.387 6.84579 1.17604 180 7.0159e-015 179.129 178.629 12.7103 179.207 -3.17488e-006 2.18243e-006 0.183454 -17.3636 69.7149 20.9473 8.13649 25.2326 -3.48773 -176.348 -0.749865 -3.0421 4.54188e-006 -4.6773e-006 -1.08932 -1.47684 -10.3291 0.628656 -2.32201e-006 -2.56743e-006 -0.266955 22.1911 72.035 -23.5984 -8.13752 25.2479 3.47817 
46.955 84.2733 12.6482 0.188505 -1.99636 -4.13663 -0.293687 -1.82706 -0.0223578 -0.573953 0.348631 -0.0177218 -0.574024 1.99366 -0.00922129 7.18004 14.0671 -0.648347 -6.65305 -0.922978 1.10566 69.8958 -0.0608303 -1.28006 115.152 30.0554 -24.0315 6.50634e-006 -4.15991e-006 3.82449e-006 -176.09 86.3387 170.291 -5.51698e-006 5.23422e-007 -3 8.03017 -4.95124 0.697628 -58.0794 -8.73966 5.40164 -119.732 24.0184 25.332 -6.30101e-006 -6.67592e-006 -5.80768e-007 118.809 86.8732 -112.844 5.05732e-006 3.15039e-006 3 -8.03011 -4.95122 -0.697626 176.359 6.85919 1.19776 180 7.0159e-015 179.129 178.617 12.7246 179.209 -3.17488e-006 2.18243e-006 0.183454 -17.3664 69.7183 20.9498 8.13649 25.2326 -3.48773 -176.374 -0.755355 -3.02412 4.54188e-006 -4.6773e-006 -1.09007 -1.47079 -10.3138 0.62877 -2.32201e-006 -2.56743e-006 -0.266955 22.1959 72.0313 -23.5948 -8.13752 25.2479 3.47817 
46.9495 84.2663 12.6446 0.202499 -1.99342 -4.14172 -0.295494 -1.82828 -0.0224215 -0.578673 0.346123 -0.0167167 -0.578755 1.99115 -0.00804809 7.18273 14.0695 -0.645688 -6.66057 -0.923953 1.10841 69.9041 -0.0517584 -1.27653 115.205 30.0978 -24.1503 6.50634e-006 -4.15991e-006 3.82449e-006 -176.196 86.3773 170.402 -5.51698e-006 5.23422e-007 -3 8.03017 -4.95124 0.697628 -58.0803 -8.7414 5.40279 -119.782 24.0111 25.6617 -6.30101e-006 -6.67592e-006 -5.80768e-007 118.934 86.873 -112.907 5.05732e-006 3.15039e-006 3 -8.03011 -4.95122 -0.697626 176.33 6.87302 1.22022 180 7.0159e-015 179.129 178.605 12.7394 179.211 -3.17488e-006 2.18243e-006 0.183454 -17.3694 69.7219 20.9523 8.13649 25.2326 -3.48773 -176.401 -0.761021 -3.0055 4.54188e-006 -4.6773e-006 -1.09084 -1.46452 -10.2979 0.628894 -2.32201e-006 -2.56743e-006 -0.266955 22.2008 72.0273 -23.591 -8.13752 25.2479 3.47817 
46.9398 84.2673 12.6502 0.216834 -1.99038 -4.14687 -0.297344 -1.82954 -0.0224927 -0.583516 0.343523 -0.015679 -0.583608 1.98855 -0.00683807 7.18579 14.0723 -0.643076 -6.66846 -0.925117 1.11121 69.9128 -0.0425769 -1.27298 115.257 30.1396 -24.2659 6.50634e-006 -4.15991e-006 3.82449e-006 -176.305 86.4157 170.515 -5.51698e-006 5.23422e-007 -3 8.03017 -4.95124 0.697628 -58.0815 -8.74283 5.40375 -119.832 24.0012 25.9908 -6.30101e-006 -6.67592e-006 -5.80768e-007 119.074 86.8717 -112.984 5.05732e-006 3.15039e-006 3 -8.03011 -4.95122 -0.697626 176.301 6.88715 1.24319 180 7.0159e-015 179.129 178.593 12.7545 179.214 -3.17488e-006 2.18243e-006 0.183454 -17.3723 69.7254 20.955 8.13649 25.2326 -3.48773 -176.429 -0.766811 -2.98643 4.54188e-006 -4.6773e-006 -1.09163 -1.4581 -10.2816 0.629025 -2.32201e-006 -2.56743e-006 -0.266955 22.2057 72.0231 -23.5871 -8.13752 25.2479 3.47817 
